# xmcd
#
# Track frame offsets: 
#        150
#        13919
#        28269
#        44346
#        58344
#        74985
#        89138
#        108600
#        120721
#        131716
#
# Disc length: 1963 seconds
#
# Revision: 0
# Processed by: cddbd v1.5.2PL0 Copyright (c) Steve Scherf et al.
# Submitted via: ExactAudioCopy v0.99pb5
#
DISCID=a507a90a
DTITLE=Mark Klein - Blue Eyed Soul Patrol 
DYEAR=2006
DGENRE=Country
TTITLE0=I Thank You
TTITLE1=Sick and Tired
TTITLE2=It Hurts So Bad
TTITLE3=You Are My Sunshine
TTITLE4=Oh Girl
TTITLE5=Flip Flop and Fly
TTITLE6=Ooh Pooh Pa Do
TTITLE7=Elvis Medley
TTITLE8=I Feel Good
TTITLE9=I Will Always Love You
EXTD=
EXTT0=
EXTT1=
EXTT2=
EXTT3=
EXTT4=
EXTT5=
EXTT6=
EXTT7=
EXTT8=
EXTT9=
PLAYORDER=
